<?xml version="1.0" encoding="utf-8"?>
<!-- Generator: Adobe Illustrator 19.1.0, SVG Export Plug-In . SVG Version: 6.00 Build 0)  -->
<!DOCTYPE svg PUBLIC "-//W3C//DTD SVG 1.1//EN" "http://www.w3.org/Graphics/SVG/1.1/DTD/svg11.dtd">
<svg version="1.1" xmlns="http://www.w3.org/2000/svg" xmlns:xlink="http://www.w3.org/1999/xlink" x="0px" y="0px"
	 viewBox="0 0 1280 150" enable-background="new 0 0 1280 150" xml:space="preserve">
<g id="draw">
	<path fill="none" stroke="#000000" stroke-width="3" stroke-miterlimit="10" d="M201,83c12-1,23.8,3.3,34.7,8.5
		c26.7,12.8,50.4,31.6,69.1,54.6c-24.8-22.8-56.8-35.8-88-48.4"/>
	<path fill="none" stroke="#000000" stroke-width="3" stroke-miterlimit="10" d="M981.9,70.8c-15.2,13.2-25.9,31.6-29.8,51.4
		c36.5-32.6,82.6-54.2,131-61.3"/>
	<path fill="none" stroke="#000000" stroke-width="3" stroke-miterlimit="10" d="M98.9,74.1c8,14.8,16,29.7,24,44.5
		c3.1-41.6,9.2-82.9,18-123.6"/>
	<path fill="none" stroke="#000000" stroke-width="3" stroke-miterlimit="10" d="M297,34c0,11.2,0,22.3,0,33.5
		c0,1.8,0.1,3.7,1.2,5.1c2.6,3.2,7.8,0.6,10.9-2.2c26-22.8,52.1-45.5,78.1-68.3"/>
	<path fill="none" stroke="#000000" stroke-width="3" stroke-miterlimit="10" d="M1118.1,88.1c-0.5,8.8-0.9,17.9,2.3,26.1
		c2.7,7,7.9,12.9,13.5,17.8c7.7,6.7,17,12.1,27.1,12.9c14.6,1.1,28.4-7.9,37-19.7c8.6-11.8,13-26,17.1-40"/>
	<path fill="none" stroke="#000000" stroke-width="3" stroke-miterlimit="10" d="M1168.4,38.2c-27.1,20-56.4,37.1-87.2,51
		c5.7-10.9,11.4-21.7,17.1-32.6c1.7-3.3,3.5-7.2,2.1-10.6c-1-2.4-3.3-3.9-5.5-5.1c-9.3-5-20.1-6.4-30.6-7.4
		c-24.2-2.3-48.5-2.7-72.8-1.1c-9.4,0.6-19,1.6-27.3,6s-14.9,13.1-14.2,22.4c1,13.7,16.1,21.5,29.4,25.1c29.2,7.7,60.4,7.6,89.4-0.5
		c-26.2,21.9-57.4,37.8-90.6,46"/>
	<path fill="none" stroke="#000000" stroke-width="3" stroke-miterlimit="10" d="M78,163.9c-20.4,0.2-40.9-1-61.2-3.4
		c-0.2-4.8,3.6-8.7,7.4-11.6C38.7,137.4,57,130,67.5,114.8c-9.4,1.6-18.8,3.3-28.2,4.9c14.1-8.8,28.2-17.5,42.3-26.3
		c5-3.1,10.8-8,9.2-13.7c-21.1,0.6-38.4-3.6-58.9-5.1c-12.3-0.9-24.7-1.3-37.1-1.2c-5.8,0-28-2.5-32.1,1.4
		c12.9-12,29.6-18.9,46-25.3c29.8-11.6,59.9-22.2,90.3-31.9c-30.5-0.5-61,1.4-91.2,5.9c18.5-14.7,37.8-28.3,58-40.5
		C40.4-21.4,15.1-10.4-8.5,0.4c5.4-4,10.8-8,16.1-12c0.8,13.9-2,28-7.9,40.5"/>
	<path fill="none" stroke="#000000" stroke-width="3" stroke-miterlimit="10" d="M1229,26.9c-44.5,0.5-89.1,0.3-133.6-0.5
		c27-14.3,56.3-24.3,86.5-29.5c-2.1,19.8,0.1,40,6.4,58.8c30.2-13.9,48.1-46.1,76.7-63.1c6.8-4,14.8-7.3,22.5-5.1
		c1.7,12.2,2.7,24.5,2.9,36.8c0.2,10.1-0.2,20.5-3.3,30.1c-3.2,9.6-9.5,18.6-18.7,22.9c-4.2-24.3-0.7-49.9,9.9-72.3
		c-17.6,33.6-29.1,70.5-33.7,108.2c-0.2,1.6-0.4,3.3-1.4,4.5c-1.1,1.5-3,2.1-4.7,2.8c-13.9,5.9-20.1,25-12.4,37.9
		c10-2.5,15.8-12.5,20.6-21.6c8.1-15.6,16.3-31.2,24.4-46.9c-8.4,6.9-15.6,15.2-21.2,24.5c12.7,1.7,25.8,0.1,37.8-4.6
		c-0.1-6.5-5.4-11.6-10.4-15.7c-30.9-25.3-66.9-44.6-105.1-56.3"/>
</g>
<g id="title">
	<text transform="matrix(1 0 0 1 417.0188 95.1418)" font-family="'Phosphate-Inline'" font-size="72px">Daveo Radio</text>
</g>
</svg>
