<?xml version="1.0" encoding="utf-8"?>
<!-- Generator: Adobe Illustrator 19.1.0, SVG Export Plug-In . SVG Version: 6.00 Build 0)  -->
<!DOCTYPE svg PUBLIC "-//W3C//DTD SVG 1.1//EN" "http://www.w3.org/Graphics/SVG/1.1/DTD/svg11.dtd">
<svg version="1.1" id="Layer_1" xmlns="http://www.w3.org/2000/svg" xmlns:xlink="http://www.w3.org/1999/xlink" x="0px" y="0px"
	 viewBox="0 0 1280 100" enable-background="new 0 0 1280 100" xml:space="preserve">
<g>
	<g>
		<path d="M7.7,75.5c23.5-5.1,43.4-18.6,64.4-29.6c21.5-11.2,49.2-20.8,72.7-9.8c11.6,5.4,19.4,15.8,29.4,23.4
			c8,6.1,17.4,9.9,27.3,11.4c21.5,3.4,43.7-2.5,63.5-10.5c23.2-9.4,45.5-22,70.5-26.3c24.4-4.2,46.3,3.7,68.5,12.8
			c18.3,7.5,38.2,16.5,58.5,14c10.6-1.3,19.1-6.3,27.9-12.2c11.7-7.8,23.9-11,37.8-12.5c27-2.9,54.4-1.6,81,3.9
			c12.9,2.7,25.5,6.5,37.9,10.8c10.8,3.7,21.7,7.5,33.1,8.6c10.2,1,20.6-0.3,29.2-6.1c9.7-6.5,15.8-17.2,27.4-21
			c21.4-6.9,44.6,8.3,63.6,16.2c18.4,7.7,36.8,10.1,56.6,6.9c20.3-3.2,39.6-10.8,58.7-17.9c19.3-7.1,39-14.4,59.7-16.1
			c10.1-0.8,20.2-0.2,30,2.5c10.9,3,20.8,8.7,30.6,14c17.6,9.6,36,17.4,55.7,9c9.8-4.2,18.3-10.8,27.5-16
			c11.3-6.4,23.2-9.3,36.1-6.7c23.3,4.9,40.9,22,62,31.7c15,6.9,33.9,11.5,50,5.6c7.1-2.6,12.7-7.3,16.8-13.6
			c1.1-1.6-1.5-3.1-2.6-1.5c-11.7,18-35.6,16.5-53.6,10.5c-21-7.1-37.8-22.6-58.2-31.2c-9.8-4.1-20.4-6.6-31-5.2
			c-9.8,1.3-18.4,6-26.7,11.1c-9.3,5.8-18.5,12.5-29.3,15.1c-12,2.8-23.8-0.8-34.6-6c-18.5-8.8-34.9-20.3-55.8-22.4
			c-19.3-1.9-38.5,2.9-56.7,8.8c-37.3,12.2-77.7,34.5-118,24c-21.1-5.5-39.5-19-61.1-22.8c-8.5-1.5-17.1-1.1-25,2.7
			c-10.1,4.8-15.9,15-25.4,20.6c-22.6,13.2-51-2.1-73.3-8.9c-24.7-7.5-50.6-11.3-76.4-11.4c-23.9,0-48.3,1.5-68.6,15
			c-10.1,6.8-20.1,11.6-32.6,11.6c-10.8,0-21.4-3.1-31.5-6.8c-20.1-7.2-39.4-17.7-60.7-20.9c-23.2-3.5-45.7,3.8-66.8,12.8
			c-22.6,9.6-44.5,21-69.1,24.4c-11.7,1.6-23.8,1.4-35.1-2.3c-12.3-4.1-20.8-12.6-30.1-21.1c-16.5-15-36.4-18.7-58-14
			c-22.8,5-42.2,18.2-62.7,28.9C30.3,65.1,19,69.9,6.9,72.6C5,73,5.8,75.9,7.7,75.5L7.7,75.5z"/>
	</g>
</g>
<g>
	<g>
		<path d="M6.1,36.3c36.8,20.8,77.2,43,120.7,42.3c19.9-0.3,37.9-6.7,55.9-14.7c19.6-8.6,39.6-18.2,61.6-16.4
			c12,0.9,23.6,4.6,35.3,7.5c10.4,2.5,20.9,4.3,31.5,5.3c21,2,42.3,0.9,63.1-3.2c21.8-4.3,41.3-13.2,61.9-21
			c10.6-4,21.7-7.1,33.1-6.7c10.3,0.4,20.2,3.6,29.6,7.5c18.1,7.4,35.3,16.9,55.2,18.3c19.6,1.3,38.9-3.8,57.7-8.9
			c19.6-5.4,39.7-11.2,60.3-10.4c21.3,0.9,40.7,10.3,61.1,15.6c8.9,2.3,18.2,3.8,27.4,3.2c9.8-0.7,18.8-4.1,27.7-8
			c21.3-9.5,42.2-15.2,65.6-16c22.9-0.8,45.7,2.2,68.3,5.8c20.5,3.3,41.1,8.2,62,8c9.5-0.1,19-1.3,27.9-4.5
			c9.2-3.3,16.7-9.4,25.2-14.1c21.7-12,40.9,5,61.2,11.4c20,6.3,41.4,3.7,61.4-1.4c22.7-5.8,44.8-14.2,67-21.7
			c11.4-3.8,22.7-7.7,34.1-11.5c1.8-0.6,1-3.5-0.8-2.9c-22.7,7.7-45.5,15.4-68.2,23.1c-21.3,7.2-43.2,14.7-65.9,15.1
			c-12.3,0.2-24.2-2-35.5-6.9c-8.8-3.8-17.3-8.7-26.6-11.2c-8-2.2-16.1-2.1-23.8,1.2c-9.3,4-16.9,11-26.2,14.9
			c-20.3,8.5-43.4,5.5-64.5,2c-21-3.5-41.9-7.3-63.1-9.2c-20.9-1.9-42.1-1.9-62.6,2.3c-10,2-19.6,5.2-28.9,9.3
			c-10.8,4.8-21.4,10.1-33.3,11.2c-20.9,1.9-41-7.4-60.6-13.3c-18.5-5.5-36.6-6.7-55.6-3.3c-19.8,3.5-38.8,10.3-58.4,14.4
			c-20.9,4.3-40.8,3.9-60.8-4c-17.6-6.9-34.5-17.1-53.7-18.8c-20.6-1.8-39.6,7.8-58.1,15.3c-41.5,16.9-87.7,21-131.4,10.7
			c-20.8-4.9-40.3-11.2-61.7-6.3c-19.5,4.4-37.1,14.7-55.7,21.6c-44.1,16.5-88.4,2-128.5-18.4c-9.8-5-19.5-10.4-29.1-15.8
			C5.9,32.7,4.4,35.3,6.1,36.3L6.1,36.3z"/>
	</g>
</g>
</svg>
