<?xml version="1.0" encoding="utf-8"?>
<!-- Generator: Adobe Illustrator 19.1.0, SVG Export Plug-In . SVG Version: 6.00 Build 0)  -->
<!DOCTYPE svg PUBLIC "-//W3C//DTD SVG 1.1//EN" "http://www.w3.org/Graphics/SVG/1.1/DTD/svg11.dtd">
<svg version="1.1" xmlns="http://www.w3.org/2000/svg" xmlns:xlink="http://www.w3.org/1999/xlink" x="0px" y="0px"
	 viewBox="0 0 1280 150" enable-background="new 0 0 1280 150" xml:space="preserve">
<g id="draw">
	<g>
		<g>
			<path d="M-1.2,145.3c29.6-12.9,54.2-41.9,88.8-39.6c17.9,1.2,35.7,8.8,53.8,4.8c15.3-3.4,27.5-14.1,38.9-24.2
				c6.4-5.7,12.8-11.8,20.2-16.3c10-6,20-4,31-3c18,1.7,36.4-1.3,53.1-8.4c16.8-7.1,31.2-18.5,47-27.3c17.2-9.6,36.2-15,55.9-14.6
				c10.2,0.2,20.4,1.9,30.5,0.3c8-1.3,15-4.9,21.3-9.8c13.4-10.4,23.1-25.1,38.7-32.5c1.7-0.8,0.2-3.4-1.5-2.6
				c-13.3,6.2-22.5,17.8-33.1,27.6c-5.6,5.2-11.8,10-19,12.5c-9.5,3.4-19.8,2.3-29.7,1.7c-18-1.1-35.7,1.4-52.3,8.5
				c-17.2,7.4-31.9,19.1-48.2,28C277.1,60,258,65,238.4,64.5c-9.2-0.2-18.6-2.8-27.8-1.4c-8,1.2-14.6,6-20.8,11
				c-12.9,10.5-24.4,23.5-39.7,30.4c-18.4,8.3-37.3,1.5-56.1-1.1c-18.1-2.5-34.1,2.2-49.7,11.2c-15.8,9.1-30.2,20.8-47,28.1
				C-4.5,143.5-3,146.1-1.2,145.3L-1.2,145.3z"/>
		</g>
	</g>
	<g>
		<g>
			<path d="M23.5,149.4c13.2-3.4,24.3-11.3,34.8-19.7c11.8-9.4,23.2-18.8,36.9-25.1C125.1,90.8,157,91.4,189,94
				c14.7,1.2,28.4-0.2,40.3-9.5C240,76,248,64.4,259.7,57c23.7-14.9,53.6-12.3,80-17.8c14.2-3,27.1-8.5,38.1-18.2
				c11.8-10.4,21.8-24,37.6-28.4c1.9-0.5,1.1-3.4-0.8-2.9C402-6.7,392.8,2.4,383.7,11.3c-10.3,10.2-20.9,18.3-35,22.5
				c-26.1,7.9-54.6,4.7-80,15.2c-12.2,5-21.1,13.4-30.2,22.7c-5,5.1-10.2,10.3-16.3,14c-7.4,4.4-15.7,5.8-24.3,5.8
				c-16.1-0.1-31.9-2.9-48.1-2.2c-14.7,0.7-29.5,3-43.5,7.7c-15.2,5.1-28.5,13.3-41,23.3c-13.1,10.5-26,22-42.6,26.3
				C20.8,147,21.6,149.9,23.5,149.4L23.5,149.4z"/>
		</g>
	</g>
	<g>
		<g>
			<path d="M842,3.1c30.1-1.3,55.8,17.3,83,27.2c14.5,5.3,28.4,6.8,43.7,5.6c9.6-0.7,19.2-1.1,28.1,3c6.8,3.2,12.5,8.1,17.9,13.3
				c11.1,10.8,21.2,22,34.4,30.4c12.5,7.9,26.6,13.5,41.4,14.8c17.1,1.5,32.9-5.2,49.7-6.1c18.3-1,31.4,9.5,44.5,20.8
				c12.2,10.6,26.7,22,43.9,19.7c9.3-1.2,17.3-4.1,26.7-1.4c9,2.6,16.6,8.5,21.3,16.6c1,1.7,3.6,0.2,2.6-1.5
				c-6.6-11.3-18.8-18.8-32-19.4c-8.6-0.3-16.7,3.6-25.3,3c-9-0.6-17.4-5.3-24.6-10.5c-12.4-9-22.6-21.2-37-27.1
				c-16-6.5-32.4-1.2-48.5,1.7c-17.5,3.2-34.6,0.6-50.5-7.2c-15.2-7.4-27.3-18.3-38.9-30.3c-9.8-10.2-20.7-20.7-35.3-22.8
				c-9.1-1.3-18.3,0.3-27.4,0.6c-7.8,0.3-15.5-0.7-23-2.7c-32-8.4-60-32.1-94.5-30.6C840.1,0.2,840.1,3.2,842,3.1L842,3.1z"/>
		</g>
	</g>
	<g>
		<g>
			<path d="M915.6,4c2.4,22.9,18,41.8,37.7,52.7c24.6,13.6,54,14.1,81.3,11.6c14.8-1.4,28.7-3.5,42.6,3.4
				c11.7,5.8,21.4,14.7,32.4,21.4c11.9,7.2,25.3,11.4,38.9,14.3c6.7,1.4,13.6,2.5,20.5,2c7.8-0.6,14.9-4.2,22.6-4.9
				c8.7-0.7,17.2,2.5,24.9,6.1c3.5,1.6,7.4,3.2,10.5,5.5c4.3,3.2,4.3,7.8,5.1,12.6c2.4,14,9.8,26.6,20.5,35.9
				c1.5,1.3,3.6-0.9,2.1-2.1c-10.3-9-17.4-21.1-19.7-34.6c-0.9-5.1-1.1-9.9-5.3-13.4c-4.6-3.9-11.4-6.4-17-8.7
				c-6.1-2.5-12.6-4.4-19.3-4.2c-6.7,0.2-12.8,3-19.3,4.3c-14.8,3-31.8-2-45.7-7c-13.1-4.8-23.9-12.7-35.2-20.6
				c-9.5-6.7-19.6-12.8-31.3-14.1c-14.2-1.6-29.1,2-43.3,2.5c-14.7,0.5-29.6-0.4-43.9-4.3c-27.1-7.5-52.8-28.5-55.9-58
				C918.4,2.1,915.4,2.1,915.6,4L915.6,4z"/>
		</g>
	</g>
</g>
<g id="title">
	<text transform="matrix(1 0 0 1 417.0188 95.1418)" font-family="'Phosphate-Inline'" font-size="72px">Daveo Radio</text>
</g>
</svg>
