<?xml version="1.0" encoding="utf-8"?>
<!-- Generator: Adobe Illustrator 19.1.0, SVG Export Plug-In . SVG Version: 6.00 Build 0)  -->
<!DOCTYPE svg PUBLIC "-//W3C//DTD SVG 1.1//EN" "http://www.w3.org/Graphics/SVG/1.1/DTD/svg11.dtd">
<svg version="1.1" id="Layer_1" xmlns="http://www.w3.org/2000/svg" xmlns:xlink="http://www.w3.org/1999/xlink" x="0px" y="0px"
	 viewBox="0 0 1280 100" enable-background="new 0 0 1280 100" xml:space="preserve">
<g>
	<g>
		<path d="M271.7,60.1c24.7-16.5,51.2-30.1,79.1-40.3c25.6-9.3,58.9-20,82.5-0.3c5.3,4.4,8.7,9.8,11.1,16.1
			c2.2,5.7,4.6,10.1,9.9,13.4c10.3,6.5,23.1,10.5,34.8,13.9c24.8,7.1,50.9,9.6,76.5,7.3c29.1-2.5,57.5-11.1,83.1-25.3
			c-0.7-0.2-1.4-0.4-2.1-0.5c10.6,20.3,31.1,42.3,56.3,32.9c26.9-10,33.3-40.6,36-65.9c-0.6,0.5-1.3,1-1.9,1.4
			c58.1,8.2,107.9,41.3,159.9,65.9c25.6,12.1,52.3,22.5,80.3,26.9c33,5.1,66.9,2.2,100-0.9c28.7-2.7,60.2-8.3,79.8-31.4
			c0.5-0.6,0.6-1.5,0-2.1c-10.5-9.6-18.3-21.9-22.3-35.6c-1.8-6-4.3-14.5-2.6-20.8c2-7.6,11.9-6.3,17.2-3.5
			c20.3,10.8,17.9,43.8,0.4,55.7c0.7,0.6,1.5,1.1,2.2,1.7c5.3-20.4,22.3-36.6,42.8-41.5c9.8-2.4,21.8-2.5,30.5,3.6
			c4.7,3.3,7.9,8.7,6.2,14.5c-1.6,5.5-7.3,11-13.2,8.1c0.2,0.6,0.5,1.1,0.7,1.7c2.4-10.2,11.4-18.6,22.1-19.1
			c10.7-0.4,20.5,6.9,23.8,17c0.5,1.6,2.9,1.3,2.9-0.4c0.4-11.4,0.9-22.9,1.3-34.3c0-0.9-1-1.8-1.9-1.4c-36.7,13-73.3,25.9-110,38.9
			c-18.2,6.4-36.4,12.9-54.5,19.3c-18,6.4-36.5,14.9-55.6,17c-17.4,1.9-38.4-4.5-44-23.1c-0.6-1.8-3.4-1.1-2.9,0.8
			c3.9,13.2,16,21.7,29,24.6c17.9,3.9,36-2.9,52.7-8.7c39.5-14,79-27.9,118.5-41.9c22.6-8,45.1-16,67.7-24c-0.6-0.5-1.3-1-1.9-1.4
			c-0.4,11.4-0.9,22.9-1.3,34.3c1-0.1,2-0.3,2.9-0.4c-3.7-11.3-14.6-19.7-26.7-19.2c-12,0.5-22.3,9.7-25,21.3
			c-0.1,0.6,0.1,1.4,0.7,1.7c9.5,4.5,18.8-5.6,18.2-15c-0.8-12.6-16.1-17.8-26.6-18.2c-27.1-0.9-52.4,19.2-59.2,45.2
			c-0.3,1.2,1.1,2.5,2.2,1.7c16.5-11.2,20.3-36.1,8.9-52.3c-5.1-7.2-14.6-13.5-23.8-10.6c-11.2,3.5-7.2,19-5.1,27.3
			c3.9,15.1,12.2,28.8,23.7,39.3c0-0.7,0-1.4,0-2.1c-18.1,21.3-46.7,27.3-73.2,30.1c-32.7,3.5-66.6,6.4-99.3,2.1
			c-57-7.4-106.3-39.6-157-64.1c-27.8-13.5-56.9-25-87.7-29.3c-1-0.1-1.8,0.4-1.9,1.4c-2.6,23.8-8.4,53.4-33.8,63
			c-23.9,9-43-12.5-52.9-31.6c-0.4-0.7-1.4-0.9-2.1-0.5C599.8,68.8,542.2,75.1,490,60c-6.3-1.8-12.5-3.9-18.6-6.4
			c-6.5-2.6-15.1-5.3-19.8-10.7c-4.1-4.7-4.9-11.5-8.3-16.8c-3-4.6-7-8.5-11.6-11.7c-22.6-15.4-51.1-8.2-74.9,0
			c-30.6,10.5-59.7,25-86.5,43C268.6,58.6,270.1,61.2,271.7,60.1L271.7,60.1z"/>
	</g>
</g>
<g>
	<g>
		<path d="M27.2,70.4c-9-12.1-0.6-31,14.7-31.7c9.3-0.4,18.2,4.2,26.7,7.2c9,3.2,18.2,5.5,27.6,7.3c1,0.2,2.3-0.7,1.8-1.8
			C88.6,28.3,67.3,14,44.6,6.1C38.1,3.8,31.5,2,24.8,0.4C20.1-0.8,13.4-3.5,8.6-1.7C3.8,0,2.4,6.3,0.6,10.5
			c-3.1,7.4-6.2,14.7-9.3,22.1C-9,33.3-8.5,34-8,34.3c12.6,8.5,27.8,12.5,43,11.5c15.7-1.1,28.3-7.7,40.8-16.6
			c6.7-4.8,13.8-9.8,22-11.5c8.9-1.9,18.1,0.4,25.7,5.2c15.8,9.8,22.6,28,26.3,45.3c0.3,1.2,2.2,1.5,2.7,0.4
			c8.7-19.7,29-33.2,50.7-32.7c12.6,0.3,24.8,4.7,36.6,8.6c12.3,4.1,24.7,8.3,37,12.4c1.8,0.6,2.6-2.3,0.8-2.9
			c-13.8-4.6-27.5-9.3-41.3-13.8c-12.2-4.1-25-8.1-38-7.2c-20.9,1.4-39.9,15-48.4,34c0.9,0.1,1.8,0.2,2.7,0.4
			c-5.1-23.3-17.8-50-44.5-53.1c-12.9-1.5-23.8,5.2-33.9,12.4c-11.4,8.1-22.8,14.5-37,16C21.9,44.2,6.3,40.4-6.5,31.7
			c0.2,0.6,0.5,1.1,0.7,1.7c2.5-5.8,4.9-11.7,7.4-17.5c1.2-2.8,2.3-5.5,3.5-8.3C7,3.1,8.4,0.7,13.9,1.1C19.5,1.4,25.6,3.6,31,5
			c5.5,1.5,10.9,3.2,16.2,5.2c20.3,7.7,39.4,21.2,47.9,41.9c0.6-0.6,1.2-1.2,1.8-1.8C84.8,48,73.2,44.4,61.7,40.1
			c-8.7-3.3-18.8-6.6-27.8-2.7c-12.8,5.5-17.4,23.4-9.2,34.5C25.8,73.5,28.4,72,27.2,70.4L27.2,70.4z"/>
	</g>
</g>
</svg>
