<?xml version="1.0" encoding="utf-8"?>
<!-- Generator: Adobe Illustrator 19.1.0, SVG Export Plug-In . SVG Version: 6.00 Build 0)  -->
<!DOCTYPE svg PUBLIC "-//W3C//DTD SVG 1.1//EN" "http://www.w3.org/Graphics/SVG/1.1/DTD/svg11.dtd">
<svg version="1.1" id="Layer_1" xmlns="http://www.w3.org/2000/svg" xmlns:xlink="http://www.w3.org/1999/xlink" x="0px" y="0px"
	 viewBox="0 0 1280 800" enable-background="new 0 0 1280 800" xml:space="preserve">
<g>
	<g>
		<path d="M2.6,116.7c42.6-16.9,93.5-5.1,125.9,26.8c8.2,8.1,14.8,17.3,20.2,27.5c4.6,8.6,9.6,17.9,20.2,19.4
			c5.5,0.7,11.2-0.7,16.6-1.8c7.5-1.4,15.1-2.7,22.7-3.7c16.1-2.2,32.4-3.6,48.6-4c27.4-0.6,55.8,2.8,76.4,22.7
			c16.3,15.8,26.3,36.7,40.7,54.1c13.9,16.7,31.8,26.8,53.4,29.7c24.6,3.3,49.5-1,74.2-1.4c26-0.4,49.5,5.1,69.8,21.9
			c17.2,14.3,31.1,32.3,49.2,45.5c19.9,14.5,42.8,18.1,66.9,16.1c25.3-2.1,50.6-8.8,76.1-6.3c51.9,5.1,77.9,56.4,120.6,79.3
			c46.5,24.8,101.3,19.4,150.7,34.5c22.4,6.9,44.6,17.8,60,36c8.9,10.5,13.3,22.7,18.6,35.2c5.1,12,12.6,22,22.1,30.8
			c19.9,18.4,43.5,33.8,66.2,48.6c24.6,16,50.1,30.8,76.2,44.2c12.7,6.5,25.6,12.7,38.7,18.5c1.7,0.8,3.3-1.8,1.5-2.6
			c-53.6-24.1-104.7-53.7-152.1-88.4c-11.7-8.6-23.8-17.2-33.8-27.8c-10.4-11-15.4-23.6-21.1-37.3c-8.7-20.9-24.7-36.5-44.4-47.3
			c-45.2-24.6-97.8-21.2-146.3-33.9c-26.9-7-48.9-20.3-69.3-38.9c-16.8-15.3-32.8-32.5-53-43.4c-22-11.9-46.1-12.3-70.3-9.3
			c-25.9,3.1-53.1,9.6-79,2.6c-24.1-6.5-41.1-25.3-58.2-42.3c-15.9-15.9-32.9-30.5-55.3-35.8c-46.3-10.9-102,15-143.4-15.2
			c-19.2-14-29.9-36.2-43.9-54.7c-14-18.6-31.4-31.3-54.6-35.8c-27.1-5.2-56.3-2.3-83.5,1.3c-7.6,1-15.2,2.2-22.7,3.6
			c-8.5,1.6-18.3,4.7-25.8-1.2c-4.9-3.9-7.7-9.9-10.5-15.3c-2.6-5-5.6-9.8-9-14.3c-25-33.7-69-52.2-110.5-47.8
			c-10.2,1.1-20.1,3.5-29.5,7.3C0,114.5,0.8,117.4,2.6,116.7L2.6,116.7z"/>
	</g>
</g>
<g>
	<g>
		<path d="M3,142.9c52.9,1,105.9,6.2,157.9,16.2c10.9,2.1,22,4.6,32,9.5c11.1,5.4,19,13.6,26,23.5c5.9,8.4,11.5,17,19.1,24
			c7,6.5,15.1,11.8,23.7,15.9c40.8,19.4,87,13.5,129.9,23.6c22.8,5.4,42,16.7,60.6,30.6c17.2,12.9,34,26.8,54,35.3
			c40,16.9,84.5,9.3,126.3,16.9c22.8,4.1,42.2,13.7,59.8,28.8c16.1,13.8,30.8,29.5,49.6,39.8c39,21.3,85.2,19.8,128.3,22.3
			c39.7,2.3,84.7,9.2,113.6,39.3c15.1,15.7,22.7,36.8,39.9,50.8c15.6,12.6,34.6,20,53.4,26.4c24.4,8.4,48.9,16.4,73.4,24.7
			c23.5,7.9,47.2,17.3,71.9,20.3c11.7,1.4,23.5,1.1,35-1.6c1.9-0.4,1.1-3.3-0.8-2.9c-26.2,6.1-52.5-1.1-77.4-9.3
			c-25.1-8.2-50-16.8-75-25.1c-21.6-7.3-44.2-13.6-64.2-25c-9.5-5.4-18.3-12-25.3-20.4c-7.7-9.1-13.1-19.8-20-29.4
			c-22.6-31.3-60.7-43.4-97.4-48.2c-43.7-5.7-89-0.9-131.4-14.8c-22.6-7.4-40.3-20.8-57.6-36.6c-15.2-13.9-30.5-27.5-50-35
			c-40.7-15.8-85.7-7.4-127.7-16.4c-22-4.8-40.8-15.5-58.7-28.8c-17.3-12.8-34-27-53.7-35.9c-41.7-18.8-89.1-11.9-132.5-23.8
			c-21.3-5.9-41.3-16.2-54.9-34.1c-6.3-8.3-11.5-17.5-18.9-25.1c-6.7-6.9-14.9-11.7-23.9-15.2c-21.9-8.5-46.8-10.9-70-14.2
			c-25.1-3.5-50.4-6.1-75.7-7.6c-13-0.8-26-1.2-39.1-1.5C1.1,139.9,1.1,142.9,3,142.9L3,142.9z"/>
	</g>
</g>
<g>
	<g>
		<path d="M1248,588.5c15.4,3.9,31.6,1.1,44.7-8c1.6-1.1,0.1-3.7-1.5-2.6c-12.4,8.6-27.7,11.5-42.4,7.7
			C1246.9,585.1,1246.1,588,1248,588.5L1248,588.5z"/>
	</g>
</g>
<g>
	<g>
		<path d="M1.4,709.4c14.2-24.8,34.4-45.8,58.6-61.1c11.5-7.3,23.8-13.2,36.7-17.6c13.4-4.6,27.6-6.4,41-11.3
			c12.2-4.5,21.9-11.9,29.2-22.7c7.6-11.2,12.7-23.9,19.1-35.8c13-24.4,28.7-48.3,50.3-66c23.4-19.2,50.8-24.7,80.2-27.8
			c25.7-2.7,52.8-5.4,74-21.8c36.1-27.9,41.8-78.2,64.8-115.1c6.3-10.1,13.9-19.4,23.4-26.6c11.4-8.7,24.6-14.4,37.9-19.4
			c24.1-9.2,48.5-17.4,67.1-36.2c17.1-17.4,28.8-39.1,45.4-57c8.4-9.1,18.1-17,29.6-21.6c15.2-6.1,31.8-6.2,47.9-6.2
			c15.2,0,30.2-0.5,45.1-3.7c14.9-3.2,29.2-8.3,43.4-13.8c27.3-10.6,54.3-23.3,83.7-27c24.6-3.1,51.7-0.9,72.6,13.7
			c5.1,3.6,9.7,7.9,13.6,12.8c4.1,5,7.4,10.7,12.5,14.8c10.1,8,24.8,6.3,36.9,6.1c28-0.5,59.6-3.3,84,13.1
			c21.7,14.5,30.6,40.6,44.1,61.8c12.2,19.1,28.3,30.9,49.7,37.7c21.1,6.8,44.3,9,64.1,19.5c9.3,5,16.8,11.9,21.8,21.3
			c0.9,1.7,3.5,0.2,2.6-1.5c-9.8-18.4-28.9-26.4-48.1-31.7c-21.6-6-45.1-9-64.1-21.5c-22.4-14.7-31.2-41.2-45.1-62.8
			c-13.8-21.5-33.2-34.1-58.6-37.6c-14-1.9-28.2-1.6-42.3-1.3c-14.7,0.3-34.8,3.7-46-7.9c-4.4-4.5-7.6-10-11.8-14.7
			c-3.9-4.4-8.5-8.2-13.4-11.5c-9.8-6.5-21-10.5-32.5-12.5c-58-10.4-107.7,25.1-161.6,38.8c-16,4.1-32,5.1-48.5,5.1
			c-15.1,0-30.5-0.2-45.1,4.2c-22.9,6.9-38.6,25.1-52.4,43.7c-15.6,21.1-30.1,42.9-53.8,55.8c-24.6,13.4-53.3,18.4-76.6,34.4
			c-39.7,27.1-45.9,78.7-69,117.5c-14,23.5-34.4,38-61.3,43.7c-28,5.9-57.7,4.2-84.8,14.7c-23.9,9.2-43.1,26.8-58.4,47
			c-8.3,11-15.6,22.8-22.2,34.9c-6.8,12.4-12.2,25.6-19.8,37.5c-9.2,14.3-22.1,21.7-38.2,26.1c-13.6,3.7-27.3,6.4-40.4,11.7
			c-24.5,9.9-46.7,25.3-64.6,44.7c-9,9.7-16.7,20.4-23.3,31.9C-2.1,709.5,0.5,711,1.4,709.4L1.4,709.4z"/>
	</g>
</g>
<g>
	<g>
		<path d="M-1.1,730.3c44.5-10.3,75.5-45.3,103.6-78.9c14.9-17.8,29.6-35.9,46.5-52c20.4-19.5,44.3-32.6,68.9-45.9
			c24.9-13.5,46.7-29.1,66.1-49.9c18.3-19.5,34.7-40.9,54.5-59c20.6-18.8,44.7-29.9,69.6-41.7c22.7-10.7,44.8-23.1,59.3-44.3
			c14.8-21.6,21.2-47.5,32.8-70.8c11.7-23.5,29.7-40.6,53.1-52.3c22.4-11.2,46.7-17.5,70.4-25.1c23.6-7.6,45.8-16.9,66.3-30.9
			c22.8-15.7,44.4-35,71.5-42.9c31-9.1,63.2-0.3,94.1,5.2c14,2.5,28.1,4.5,42.3,4.3c14.7-0.3,29.3-2.9,43.8-5
			c15.9-2.4,32.4-4.5,48.4-1.7c14,2.5,26.1,9.1,37,18.1c19.3,16,35.3,35.8,60.7,42.1c26.9,6.7,57.5,1.2,81,18.7
			c11.4,8.6,19.5,20.8,26.7,32.9c7,11.6,13.7,23.4,21.3,34.6c16.4,24.3,35.2,47,56.1,67.5c10.1,10,20.8,19.4,31.8,28.3
			c1.5,1.2,3.6-0.9,2.1-2.1c-23.3-18.8-44.6-40-63.6-63.1c-9.9-12.1-19.1-24.7-27.6-37.7c-7.6-11.7-14.3-24.1-21.8-35.9
			c-6.3-9.9-13.5-19.4-22.8-26.6c-10.7-8.2-23.5-12-36.7-13.8c-13.8-1.9-27.9-2.1-41.6-4.8c-14.4-2.9-26.5-9.6-37.7-19.1
			c-19.4-16.3-35.9-36.4-61.9-41.7c-29-5.9-58.4,3.8-87.3,5.8c-31.1,2.2-61-7.2-91.5-11.3c-28.9-3.9-55.7-0.4-81.1,14.5
			c-23.8,14-44.2,33.1-68.9,45.4c-22.3,11.1-46.5,17.6-70.1,25.2c-22.5,7.2-45.3,15.4-64.3,29.9c-19.8,15.1-31.3,35.9-40.5,58.6
			c-10.3,25.3-19.3,51.8-40.7,70.2c-20.4,17.6-46.6,26.5-70.3,38.5c-24.2,12.2-43.9,29.3-62.1,49.2c-18.5,20.3-35.4,42.2-56.5,59.9
			c-22.9,19.3-50.6,30.8-76,46.2c-21,12.8-38.9,29.2-55.3,47.5c-30.7,34.2-57.4,75.7-98.5,98.7c-10,5.6-20.6,9.7-31.8,12.3
			C-3.8,727.8-3,730.7-1.1,730.3L-1.1,730.3z"/>
	</g>
</g>
</svg>
