<?xml version="1.0" encoding="utf-8"?>
<!-- Generator: Adobe Illustrator 19.1.0, SVG Export Plug-In . SVG Version: 6.00 Build 0)  -->
<!DOCTYPE svg PUBLIC "-//W3C//DTD SVG 1.1//EN" "http://www.w3.org/Graphics/SVG/1.1/DTD/svg11.dtd">
<svg version="1.1" xmlns="http://www.w3.org/2000/svg" xmlns:xlink="http://www.w3.org/1999/xlink" x="0px" y="0px"
	 viewBox="0 0 1280 150" enable-background="new 0 0 1280 150" xml:space="preserve">
<g id="draw">
</g>
<g id="title">
	<g>
		<path d="M423.9,95.1v-48h13.3c4.5,0,8.5,0.5,12.1,1.5c3.5,1,6.5,2.5,8.9,4.5c2.4,2,4.3,4.5,5.5,7.5c1.3,3,1.9,6.5,1.9,10.4
			c0,3.9-0.6,7.4-1.9,10.4c-1.3,3-3.1,5.5-5.5,7.5c-2.4,2-5.4,3.5-8.9,4.6c-3.5,1-7.5,1.5-12.1,1.5H423.9z M431.1,89.4h6.1
			c7,0,12.3-1.6,15.9-4.8c3.6-3.2,5.4-7.7,5.4-13.5c0-5.8-1.8-10.3-5.4-13.5c-3.6-3.2-8.9-4.8-15.9-4.8h-6.1V89.4z M432.9,87.7v-33
			h4.2c6.1,0,10.8,1.4,14.2,4.1c3.4,2.8,5.1,6.9,5.1,12.3c0,5.5-1.7,9.6-5.1,12.4c-3.4,2.8-8.1,4.2-14.2,4.2H432.9z M439.2,81.5
			c3.6,0,6.4-0.9,8.4-2.6c2-1.7,3-4.3,3-7.8c0-3.5-1-6.1-3-7.8c-2-1.7-4.8-2.5-8.4-2.5V81.5z"/>
		<path d="M483.8,47.1h11.5l18.2,48h-15.1l-1.6-4.3h-14.5l-1.6,4.3h-15.1L483.8,47.1z M476.3,89.4l1.4-3.6h23.8l1.4,3.6h2L491,52.9
			h-2.7l-13.9,36.5H476.3z M489.6,54.6l11.2,29.4h-22.5L489.6,54.6z M492.8,80.2l-3.2-8.4l-3.2,8.4H492.8z"/>
		<path d="M518.8,47.1L527,68l8.2-20.9h16.8l-18.7,48h-12.5l-18.7-48H518.8z M527.8,89.4L542,52.9h-2l-13,33.2l-13-33.2h-2
			l14.3,36.5H527.8z"/>
		<path d="M553,47.1h28.3v12.6h-13V65h12.7v12h-12.7v5.5h13.5v12.6H553V47.1z M576.5,89.4v-1.7h-14.4V71.9h13.7v-1.7h-13.7V54.6
			h14.4v-1.7h-16.3v36.5H576.5z"/>
		<path d="M585.1,71.2c0-3.5,0.7-6.7,2-9.8c1.3-3.1,3.1-5.7,5.4-8c2.3-2.3,5-4.1,8-5.4c3.1-1.3,6.3-2,9.8-2s6.7,0.7,9.8,2
			c3.1,1.3,5.7,3.1,8,5.4c2.3,2.3,4.1,5,5.4,8c1.3,3.1,2,6.3,2,9.8s-0.7,6.7-2,9.8c-1.3,3.1-3.1,5.7-5.4,8c-2.3,2.3-5,4.1-8,5.4
			c-3.1,1.3-6.3,2-9.8,2s-6.7-0.7-9.8-2c-3.1-1.3-5.7-3.1-8-5.4c-2.3-2.3-4.1-5-5.4-8C585.7,77.9,585.1,74.6,585.1,71.2z
			 M591.8,71.2c0,2.5,0.5,4.9,1.4,7.2c1,2.2,2.3,4.2,4,5.9c1.7,1.7,3.6,3,5.9,4c2.2,1,4.6,1.4,7.2,1.4c2.5,0,4.9-0.5,7.2-1.4
			c2.2-1,4.2-2.3,5.9-4c1.7-1.7,3-3.6,4-5.9s1.4-4.6,1.4-7.2c0-2.5-0.5-4.9-1.4-7.2c-1-2.2-2.3-4.2-4-5.9c-1.7-1.7-3.6-3-5.9-4
			c-2.2-1-4.6-1.4-7.2-1.4c-2.5,0-4.9,0.5-7.2,1.4c-2.2,1-4.2,2.3-5.9,4c-1.7,1.7-3,3.6-4,5.9C592.3,66.2,591.8,68.6,591.8,71.2z
			 M610.3,87.7c-2.3,0-4.5-0.4-6.4-1.3c-2-0.9-3.7-2.1-5.3-3.6c-1.5-1.5-2.7-3.3-3.6-5.3c-0.9-2-1.3-4.1-1.3-6.4
			c0-2.3,0.4-4.5,1.3-6.4c0.9-2,2.1-3.7,3.6-5.3c1.5-1.5,3.3-2.7,5.3-3.6c2-0.9,4.1-1.3,6.4-1.3c2.3,0,4.5,0.4,6.4,1.3
			c2,0.9,3.7,2.1,5.3,3.6c1.5,1.5,2.7,3.3,3.6,5.3c0.9,2,1.3,4.1,1.3,6.4c0,2.3-0.4,4.5-1.3,6.4c-0.9,2-2.1,3.7-3.6,5.3
			c-1.5,1.5-3.3,2.7-5.3,3.6C614.7,87.3,612.6,87.7,610.3,87.7z M600.2,71.2c0,1.4,0.3,2.7,0.8,3.9c0.5,1.2,1.2,2.3,2.2,3.2
			c0.9,0.9,2,1.6,3.2,2.2c1.2,0.5,2.5,0.8,3.9,0.8c1.4,0,2.7-0.3,3.9-0.8c1.2-0.5,2.3-1.2,3.2-2.2c0.9-0.9,1.6-2,2.2-3.2
			c0.5-1.2,0.8-2.5,0.8-3.9c0-1.4-0.3-2.7-0.8-3.9c-0.5-1.2-1.2-2.3-2.2-3.2c-0.9-0.9-2-1.6-3.2-2.2c-1.2-0.5-2.5-0.8-3.9-0.8
			c-1.4,0-2.7,0.3-3.9,0.8c-1.2,0.5-2.3,1.2-3.2,2.2c-0.9,0.9-1.6,2-2.2,3.2C600.4,68.5,600.2,69.8,600.2,71.2z"/>
		<path d="M653.8,47.1h16.6c3.1,0,5.9,0.4,8.5,1.2c2.6,0.8,4.9,2,6.8,3.6c1.9,1.6,3.4,3.5,4.5,5.9c1.1,2.3,1.6,5,1.6,8
			c0,2.4-0.3,4.4-1,6.1c-0.7,1.7-1.4,3.1-2.2,4.2c-1,1.2-2,2.3-3.2,3.2l9,15.8h-18L669.2,83v12.2h-15.3V47.1z M668.8,78.4
			c1.9,0,3.7-0.2,5.5-0.6l6.8,11.5h2.2l-7.2-12.1c2.6-0.9,4.7-2.3,6.2-4.2c1.5-1.9,2.3-4.4,2.3-7.4c0-2.1-0.4-4-1.2-5.5
			s-1.9-2.9-3.3-4c-1.4-1.1-3.1-1.9-5-2.4c-1.9-0.6-4-0.8-6.3-0.8H661v36.5h1.9V78.4H668.8z M662.9,76.7V54.6h5.9
			c4.4,0,7.8,1,10.3,2.9c2.5,1.9,3.7,4.7,3.7,8.2c0,3.6-1.2,6.3-3.7,8.2c-2.5,1.9-5.9,2.8-10.3,2.8H662.9z M669.2,70.7h0.8
			c1.8,0,3.4-0.4,4.6-1.2c1.3-0.8,1.9-2.2,1.9-4.1c0-1.9-0.6-3.3-1.9-4.1c-1.3-0.8-2.8-1.2-4.6-1.2h-0.8V70.7z"/>
		<path d="M710.1,47.1h11.5l18.2,48h-15.1l-1.6-4.3h-14.5l-1.6,4.3h-15.1L710.1,47.1z M702.6,89.4l1.4-3.6h23.8l1.4,3.6h2
			l-13.9-36.5h-2.7l-13.9,36.5H702.6z M715.8,54.6L727,84.1h-22.5L715.8,54.6z M719.1,80.2l-3.2-8.4l-3.2,8.4H719.1z"/>
		<path d="M740.9,95.1v-48h13.3c4.5,0,8.5,0.5,12.1,1.5c3.5,1,6.5,2.5,8.9,4.5c2.4,2,4.3,4.5,5.5,7.5c1.3,3,1.9,6.5,1.9,10.4
			c0,3.9-0.6,7.4-1.9,10.4c-1.3,3-3.1,5.5-5.5,7.5c-2.4,2-5.4,3.5-8.9,4.6c-3.5,1-7.5,1.5-12.1,1.5H740.9z M748.1,89.4h6.1
			c7,0,12.3-1.6,15.9-4.8c3.6-3.2,5.4-7.7,5.4-13.5c0-5.8-1.8-10.3-5.4-13.5c-3.6-3.2-8.9-4.8-15.9-4.8h-6.1V89.4z M749.9,87.7v-33
			h4.2c6.1,0,10.8,1.4,14.2,4.1c3.4,2.8,5.1,6.9,5.1,12.3c0,5.5-1.7,9.6-5.1,12.4c-3.4,2.8-8.1,4.2-14.2,4.2H749.9z M756.2,81.5
			c3.6,0,6.4-0.9,8.4-2.6c2-1.7,3-4.3,3-7.8c0-3.5-1-6.1-3-7.8c-2-1.7-4.8-2.5-8.4-2.5V81.5z"/>
		<path d="M786.6,47.1h16.3v48h-16.3V47.1z M795.7,89.4V52.9h-1.9v36.5H795.7z"/>
		<path d="M806.8,71.2c0-3.5,0.7-6.7,2-9.8c1.3-3.1,3.1-5.7,5.4-8c2.3-2.3,5-4.1,8-5.4c3.1-1.3,6.3-2,9.8-2s6.7,0.7,9.8,2
			c3.1,1.3,5.7,3.1,8,5.4c2.3,2.3,4.1,5,5.4,8c1.3,3.1,2,6.3,2,9.8s-0.7,6.7-2,9.8c-1.3,3.1-3.1,5.7-5.4,8c-2.3,2.3-5,4.1-8,5.4
			c-3.1,1.3-6.3,2-9.8,2s-6.7-0.7-9.8-2c-3.1-1.3-5.7-3.1-8-5.4c-2.3-2.3-4.1-5-5.4-8C807.5,77.9,806.8,74.6,806.8,71.2z
			 M813.6,71.2c0,2.5,0.5,4.9,1.4,7.2c1,2.2,2.3,4.2,4,5.9c1.7,1.7,3.6,3,5.9,4c2.2,1,4.6,1.4,7.2,1.4s4.9-0.5,7.2-1.4
			c2.2-1,4.2-2.3,5.9-4c1.7-1.7,3-3.6,4-5.9c1-2.2,1.4-4.6,1.4-7.2c0-2.5-0.5-4.9-1.4-7.2c-1-2.2-2.3-4.2-4-5.9
			c-1.7-1.7-3.6-3-5.9-4c-2.2-1-4.6-1.4-7.2-1.4s-4.9,0.5-7.2,1.4c-2.2,1-4.2,2.3-5.9,4c-1.7,1.7-3,3.6-4,5.9
			C814.1,66.2,813.6,68.6,813.6,71.2z M832,87.7c-2.3,0-4.5-0.4-6.4-1.3c-2-0.9-3.7-2.1-5.3-3.6c-1.5-1.5-2.7-3.3-3.6-5.3
			c-0.9-2-1.3-4.1-1.3-6.4c0-2.3,0.4-4.5,1.3-6.4c0.9-2,2.1-3.7,3.6-5.3c1.5-1.5,3.3-2.7,5.3-3.6c2-0.9,4.1-1.3,6.4-1.3
			c2.3,0,4.5,0.4,6.4,1.3c2,0.9,3.7,2.1,5.3,3.6c1.5,1.5,2.7,3.3,3.6,5.3c0.9,2,1.3,4.1,1.3,6.4c0,2.3-0.4,4.5-1.3,6.4
			c-0.9,2-2.1,3.7-3.6,5.3c-1.5,1.5-3.3,2.7-5.3,3.6C836.5,87.3,834.3,87.7,832,87.7z M821.9,71.2c0,1.4,0.3,2.7,0.8,3.9
			c0.5,1.2,1.2,2.3,2.2,3.2c0.9,0.9,2,1.6,3.2,2.2c1.2,0.5,2.5,0.8,3.9,0.8c1.4,0,2.7-0.3,3.9-0.8c1.2-0.5,2.3-1.2,3.2-2.2
			c0.9-0.9,1.6-2,2.2-3.2c0.5-1.2,0.8-2.5,0.8-3.9c0-1.4-0.3-2.7-0.8-3.9s-1.2-2.3-2.2-3.2c-0.9-0.9-2-1.6-3.2-2.2
			c-1.2-0.5-2.5-0.8-3.9-0.8c-1.4,0-2.7,0.3-3.9,0.8c-1.2,0.5-2.3,1.2-3.2,2.2c-0.9,0.9-1.6,2-2.2,3.2S821.9,69.8,821.9,71.2z"/>
	</g>
</g>
</svg>
