<?xml version="1.0" encoding="utf-8"?>
<!-- Generator: Adobe Illustrator 18.1.1, SVG Export Plug-In . SVG Version: 6.00 Build 0)  -->
<!DOCTYPE svg PUBLIC "-//W3C//DTD SVG 1.1//EN" "http://www.w3.org/Graphics/SVG/1.1/DTD/svg11.dtd">
<svg version="1.1"
	 id="svg2989" xmlns:svg="http://www.w3.org/2000/svg" xmlns:rdf="http://www.w3.org/1999/02/22-rdf-syntax-ns#" xmlns:cc="http://creativecommons.org/ns#" xmlns:dc="http://purl.org/dc/elements/1.1/"
	 xmlns="http://www.w3.org/2000/svg" xmlns:xlink="http://www.w3.org/1999/xlink" x="0px" y="0px" viewBox="0 0 48 48"
	 enable-background="new 0 0 48 48" xml:space="preserve">
<g id="g2991" transform="matrix(1,0,0,-1,121.49153,1300.6102)">
	<path id="path2993" fill="#A61C2A" d="M-83.8,1276.6c0,2.5-0.6,4.8-1.9,7l-18.8-18.8c2.2-1.3,4.5-1.9,7-1.9c1.9,0,3.6,0.4,5.3,1.1
		c1.7,0.7,3.1,1.7,4.4,2.9c1.2,1.2,2.2,2.7,2.9,4.4S-83.8,1274.8-83.8,1276.6z M-109.3,1269.6l18.8,18.8c-2.2,1.3-4.5,1.9-7,1.9
		c-1.9,0-3.6-0.4-5.3-1.1c-1.7-0.7-3.1-1.7-4.4-2.9c-1.2-1.2-2.2-2.7-2.9-4.4s-1.1-3.5-1.1-5.3
		C-111.2,1274.1-110.6,1271.8-109.3,1269.6z M-76.9,1276.6c0-3.7-0.9-7.2-2.8-10.3c-1.8-3.2-4.3-5.6-7.5-7.5
		c-3.2-1.8-6.6-2.8-10.3-2.8s-7.2,0.9-10.3,2.8c-3.2,1.8-5.6,4.3-7.5,7.5c-1.8,3.2-2.8,6.6-2.8,10.3s0.9,7.2,2.8,10.3
		c1.8,3.2,4.3,5.6,7.5,7.5c3.2,1.8,6.6,2.8,10.3,2.8s7.2-0.9,10.3-2.8c3.2-1.8,5.6-4.3,7.5-7.5
		C-77.8,1283.8-76.9,1280.3-76.9,1276.6z"/>
</g>
</svg>
